<?xml version="1.0" encoding="utf-8"?>
<svg xmlns="http://www.w3.org/2000/svg" height="40" width="40" viewBox="0 0 40 40">
  <g>
    <path id="path1" transform="rotate(0,20,20) translate(0,4.06312108039856) scale(1.25,1.25)  " fill="#FAFAFA" d="M30.197008,17.564994L31.577006,19.012013 25.128004,25.156994 24.835813,24.850619 24.826996,24.859016 22.255994,22.161014 23.703995,20.782012 25.187283,22.338572z M15.954,13.826993L21.194995,13.826993 21.194995,14.826993 15.954,14.826993z M9.0059986,12.818013L9.7189989,12.818013C11.469999,12.818013,12.894,14.241012,12.894,15.992011L12.894,18.297009 11.894,18.297009 11.894,15.992011C11.894,14.793011,10.917999,13.818012,9.7189989,13.818012L9.0059986,13.818012C7.8069973,13.818012,6.8319969,14.793011,6.8319969,15.992011L6.8319969,18.297009 5.8319969,18.297009 5.8319969,15.992011C5.8319969,14.241012,7.2559967,12.818013,9.0059986,12.818013z M15.954,9.8269935L26.194995,9.8269935 26.194995,10.826993 15.954,10.826993z M9.3530006,8.0399923C8.4610004,8.0399923 7.7350006,8.7659931 7.7350006,9.6579947 7.7350006,10.550996 8.4610004,11.275997 9.3530006,11.275997 10.245,11.275997 10.971,10.550996 10.971,9.6579947 10.971,8.7659931 10.245,8.0399923 9.3530006,8.0399923z M9.3530006,7.0399914C10.797,7.0399914 11.971,8.2149925 11.971,9.6579947 11.971,11.101997 10.797,12.275999 9.3530006,12.275999 7.9090004,12.275999 6.7350006,11.101997 6.7350006,9.6579947 6.7350006,8.2149925 7.9090004,7.0399914 9.3530006,7.0399914z M0,0L32.000001,0 32.000001,12.399003 30.000001,12.399003 30.000001,2 2,2 2,23.499006 19.000001,23.499006 19.000001,25.499007 0,25.499007z" />
  </g>
</svg>

